<svg width="114" height="38" viewBox="0 0 114 38" fill="none" xmlns="http://www.w3.org/2000/svg">
<path d="M0.203369 28.8784V8.82707H4.73704V13.4713L4.22101 12.6973C4.58961 11.2475 5.32679 10.1663 6.43256 9.45367C7.53834 8.74106 8.84069 8.38476 10.3396 8.38476C11.986 8.38476 13.4358 8.81478 14.689 9.67483C15.9422 10.5349 16.7531 11.6652 17.1217 13.0659L15.7579 13.1764C16.3722 11.5792 17.2937 10.3874 18.5224 9.60111C19.751 8.79021 21.1639 8.38476 22.7612 8.38476C24.1864 8.38476 25.4519 8.7042 26.5576 9.3431C27.688 9.98199 28.5726 10.8789 29.2115 12.0338C29.8504 13.1642 30.1698 14.4788 30.1698 15.9777V28.8784H25.3413V17.1204C25.3413 16.2358 25.1816 15.474 24.8621 14.8351C24.5427 14.1962 24.1004 13.7048 23.5352 13.3607C22.97 12.9922 22.282 12.8079 21.4711 12.8079C20.7093 12.8079 20.0336 12.9922 19.4438 13.3607C18.8541 13.7048 18.3995 14.1962 18.08 14.8351C17.7606 15.474 17.6009 16.2358 17.6009 17.1204V28.8784H12.7723V17.1204C12.7723 16.2358 12.6126 15.474 12.2932 14.8351C11.9737 14.1962 11.5191 13.7048 10.9294 13.3607C10.3642 12.9922 9.68845 12.8079 8.90212 12.8079C8.14037 12.8079 7.46462 12.9922 6.87487 13.3607C6.28513 13.7048 5.83053 14.1962 5.51108 14.8351C5.19164 15.474 5.03191 16.2358 5.03191 17.1204V28.8784H0.203369Z" fill="#1B263B"/>
<path d="M36.3276 37.0243C35.787 37.0243 35.2587 36.9752 34.7427 36.8769C34.2266 36.8031 33.7598 36.668 33.342 36.4714V32.4169C33.6615 32.4906 34.0424 32.5643 34.4847 32.6381C34.9515 32.7118 35.3816 32.7486 35.7747 32.7486C36.8805 32.7486 37.6791 32.4906 38.1706 31.9746C38.6866 31.4586 39.1412 30.7828 39.5344 29.9474L40.8613 26.8512L40.7876 30.9057L32.052 8.82707H37.2491L43.3677 25.1188H41.5248L47.6065 8.82707H52.8405L44.1049 30.9057C43.5889 32.208 42.9623 33.3138 42.2251 34.223C41.4879 35.1322 40.6278 35.8202 39.6449 36.2871C38.6866 36.7786 37.5808 37.0243 36.3276 37.0243Z" fill="#1B263B"/>
<path d="M54.9392 28.8784V25.0819L62.3847 17.3047C63.8591 15.7566 64.9894 14.5279 65.7758 13.6188C66.5867 12.685 67.1518 11.8864 67.4713 11.2229C67.7907 10.5594 67.9504 9.8837 67.9504 9.19566C67.9504 8.04074 67.5819 7.13155 66.8447 6.46808C66.1321 5.80462 65.2106 5.47289 64.0802 5.47289C62.9007 5.47289 61.881 5.81691 61.0209 6.50494C60.1609 7.16841 59.5343 8.15132 59.1411 9.45367L54.7549 8.08989C55.0498 6.64009 55.6518 5.38688 56.561 4.33026C57.4702 3.24905 58.5759 2.42587 59.8783 1.86069C61.2052 1.27095 62.6059 0.976074 64.0802 0.976074C65.8495 0.976074 67.3976 1.29552 68.7245 1.93441C70.076 2.5733 71.1203 3.47021 71.8575 4.62513C72.6193 5.78005 73.0001 7.13155 73.0001 8.67963C73.0001 9.66254 72.8158 10.6332 72.4473 11.5915C72.0787 12.5498 71.5258 13.5328 70.7886 14.5402C70.0514 15.5231 69.0931 16.6289 67.9136 17.8576L61.4632 24.6396H73.3687V28.8784H54.9392Z" fill="#1B263B"/>
<path d="M77.8906 28.8784V1.41838H86.8474C89.747 1.41838 92.2657 2.00813 94.4035 3.18762C96.5659 4.34254 98.2368 5.95206 99.4163 8.01617C100.596 10.0557 101.186 12.427 101.186 15.13C101.186 17.8084 100.596 20.192 99.4163 22.2806C98.2368 24.3448 96.5659 25.9666 94.4035 27.1461C92.2657 28.301 89.747 28.8784 86.8474 28.8784H77.8906ZM82.9035 24.4553H86.9579C88.8255 24.4553 90.435 24.0745 91.7865 23.3127C93.1626 22.5264 94.2315 21.4452 94.9932 20.0691C95.755 18.6685 96.1359 17.0221 96.1359 15.13C96.1359 13.2133 95.755 11.5669 94.9932 10.1909C94.2315 8.81478 93.1626 7.74587 91.7865 6.98411C90.435 6.22236 88.8255 5.84148 86.9579 5.84148H82.9035V24.4553Z" fill="#1B263B"/>
<circle cx="109.83" cy="24.9113" r="3.96698" fill="#FFD166"/>
</svg>
